<svg id="Capa_1" enable-background="new 0 0 480 480" height="512" viewBox="0 0 480 480" width="512" xmlns="http://www.w3.org/2000/svg">
<style type="text/css">
	.color{fill:#013f54;}
</style>
<path class="color" d="m479.961 422.44-1.114-22.83c-.208-4.262-3.724-7.61-7.991-7.61h-22.856v-96h-16v96h-139.487c-5.747-.016-11.262 2.269-15.314 6.344-1.059 1.064-2.499 1.661-4 1.656h-67.542c-1.501.004-2.941-.592-4-1.656-4.052-4.076-9.567-6.36-15.314-6.344h-138.343v-216c.015-13.248 10.752-23.985 24-24v224h16v-264c0-13.906 11.355-24 27-24h45v-16h-45c-24.514 0-43 17.2-43 40v24c-22.081.025-39.975 17.919-40 40v216h-24c-4.418 0-8 3.582-8 8v24c.02 17.665 14.335 31.98 32 32h416c17.673-.001 32-14.328 31.999-32.001 0-.52-.013-1.04-.038-1.559zm-20.375 12.594c-3.01 3.185-7.204 4.983-11.586 4.966h-416c-8.832-.01-15.99-7.168-16-16v-16h170.343c1.501-.004 2.941.592 4 1.656 4.052 4.076 9.567 6.36 15.314 6.344h67.543c5.747.016 11.262-2.269 15.314-6.344 1.059-1.064 2.499-1.661 4-1.656h170.723l.743 15.221c.231 4.376-1.36 8.652-4.394 11.813z"/><path class="color" d="m392 296h16v80h-16z"/><path class="color" d="m112 104h16v16h-16z"/><path class="color" d="m144 104h16v16h-16z"/><path class="color" d="m112 136h48v16h-48z"/><path class="color" d="m216 280h29.394l-13.086 45.8c-1.214 4.248 1.245 8.676 5.494 9.89 2.318.663 4.811.244 6.786-1.138l77.934-54.552h117.478c22.081-.025 39.975-17.919 40-40v-176c-.025-22.081-17.919-39.975-40-40h-224c-22.081.025-39.975 17.919-40 40v176c.025 22.081 17.919 39.975 40 40zm-24-216c.015-13.249 10.751-23.985 24-24h224c13.249.015 23.985 10.751 24 24v176c-.015 13.249-10.751 23.985-24 24h-120c-1.641 0-3.243.505-4.588 1.446l-61.524 43.068 9.8-34.316c1.214-4.248-1.246-8.676-5.494-9.89-.714-.204-1.452-.308-2.194-.308h-40c-13.249-.015-23.985-10.751-24-24z"/><path class="color" d="m112 168h16v16h-16z"/><path class="color" d="m112 200h48v16h-48z"/><path class="color" d="m112 232h48v16h-48z"/><path class="color" d="m112 264h56v16h-56z"/><path class="color" d="m112 296h32v16h-32z"/><path class="color" d="m112 328h104v16h-104z"/><path d="m312 296h56v16h-56z"/><path class="color" d="m272 328h96v16h-96z"/><path class="color" d="m112 360h200v16h-200z"/><path class="color" d="m144 168h16v16h-16z"/><path class="color" d="m160 296h56v16h-56z"/><path class="color" d="m328 360h40v16h-40z"/><path class="color" d="m288 208.9-46.918 13.219c-1.309-1.737-2.909-3.233-4.729-4.422-3.707-2.404-8.662-1.347-11.066 2.36s-1.347 8.662 2.36 11.066c1.518 1.089 1.94 3.164.968 4.759-2.282 3.783-1.065 8.7 2.719 10.982 3.783 2.282 8.7 1.065 10.982-2.719.007-.011.013-.022.02-.033 1.177-1.973 1.991-4.14 2.406-6.4l49.438-13.93c.596.142 1.207.215 1.82.218h64c.613-.002 1.224-.075 1.821-.216l49.437 13.929c.415 2.26 1.229 4.427 2.406 6.4 2.281 3.784 7.197 5.003 10.981 2.723 3.773-2.274 4.998-7.17 2.74-10.953-.972-1.595-.55-3.67.968-4.759 3.707-2.404 4.764-7.359 2.36-11.066s-7.358-4.764-11.066-2.36c-1.82 1.19-3.421 2.686-4.73 4.422l-46.917-13.22v-5.8l46.906-13.216c1.311 1.743 2.915 3.245 4.741 4.438 3.707 2.404 8.661 1.348 11.065-2.36 2.404-3.707 1.348-8.661-2.359-11.065-1.517-1.09-1.939-3.164-.968-4.76 2.304-3.77 1.115-8.694-2.655-10.998s-8.694-1.115-10.998 2.655c-.023.038-.046.075-.068.113-1.172 1.968-1.984 4.128-2.4 6.38l-13.492 3.8c1.47-3.16 2.231-6.603 2.228-10.088v-40c0-39.765-32.236-72-72-72s-72 32.235-72 72v40c-.002 3.485.759 6.927 2.23 10.086l-13.492-3.8c-.416-2.252-1.228-4.412-2.4-6.38-2.304-3.77-7.228-4.958-10.998-2.654-3.726 2.277-4.937 7.12-2.723 10.883.971 1.596.549 3.67-.968 4.76-3.707 2.404-4.764 7.358-2.359 11.065 2.404 3.707 7.358 4.764 11.065 2.36 1.826-1.193 3.43-2.695 4.741-4.438l46.904 13.219zm-16-80.9c0-30.928 25.072-56 56-56s56 25.072 56 56v40c-.005 4.416-3.584 7.995-8 8h-16c-4.418 0-8 3.582-8 8v24h-48v-24c0-4.418-3.582-8-8-8h-16c-4.416-.005-7.995-3.584-8-8z"/><circle cx="304" cy="136" r="16"/><circle cx="352" cy="136" r="16"/><path d="m320 160h16v24h-16z"/></svg>