<?xml version="1.0" encoding="iso-8859-1"?>
<!-- Generator: Adobe Illustrator 21.0.0, SVG Export Plug-In . SVG Version: 6.00 Build 0)  -->
<svg version="1.1" id="Capa_1" xmlns="http://www.w3.org/2000/svg" xmlns:xlink="http://www.w3.org/1999/xlink" x="0px" y="0px"
	 viewBox="0 0 511.999 511.999" style="enable-background:new 0 0 511.999 511.999;" xml:space="preserve">
	 <style type="text/css">
	.color{fill:#013f54;}
</style>
<g>
	<g>
		<path class="color" d="M472.436,64.128H213.168c-6.561,0-12.73-2.555-17.37-7.194l-13.282-13.281c-7.473-7.473-17.408-11.588-27.976-11.588
			H39.564C17.749,32.063,0,49.812,0,71.628V440.37c0,21.816,17.749,39.564,39.564,39.564h432.871
			c21.816,0,39.564-17.749,39.564-39.564V103.692C512,81.877,494.251,64.128,472.436,64.128z M497,112.792
			c-6.754-5.366-15.288-8.583-24.564-8.583h-8.018c-4.142,0-7.5,3.357-7.5,7.5c0,4.142,3.358,7.5,7.5,7.5h8.018
			c13.545,0,24.564,11.02,24.564,24.564V440.37c0,13.545-11.02,24.564-24.564,24.564H39.564C26.02,464.935,15,453.915,15,440.37
			V143.773c0-13.545,11.02-24.564,24.564-24.564h392.79c4.142,0,7.5-3.358,7.5-7.5c0-4.143-3.358-7.5-7.5-7.5H39.564
			c-9.276,0-17.811,3.217-24.564,8.583V71.628c0-13.545,11.02-24.564,24.564-24.564h114.977c6.562,0,12.73,2.555,17.37,7.195
			l13.282,13.281c7.473,7.473,17.408,11.588,27.976,11.588h259.267c13.545,0,24.564,11.02,24.564,24.564V112.792z"/>
	</g>
</g>
<g>
	<g>
		<path class="color" d="M327.629,257.423v-33.489c0-39.497-32.133-71.629-71.629-71.629c-39.496,0-71.629,32.132-71.629,71.629v33.489
			c-13.786,3.375-24.048,15.829-24.048,30.64c0,4.142,3.358,7.5,7.5,7.5c4.142,0,7.5-3.358,7.5-7.5
			c0-9.125,7.423-16.548,16.548-16.548h128.258c9.125,0,16.548,7.423,16.548,16.548v48.097c0,44.486-36.192,80.678-80.677,80.678
			s-80.677-36.192-80.677-80.678v-16.032c0-4.142-3.358-7.5-7.5-7.5c-4.142,0-7.5,3.358-7.5,7.5v16.032
			c0,52.757,42.92,95.678,95.677,95.678s95.677-42.921,95.677-95.678v-48.097C351.677,273.252,341.415,260.799,327.629,257.423z
			 M231.435,256.515v-32.581c0-13.545,11.02-24.564,24.564-24.564c13.544,0,24.564,11.02,24.564,24.564v32.581H231.435z
			 M312.629,256.516h-17.064v-32.581c0-21.816-17.749-39.564-39.564-39.564s-39.564,17.748-39.564,39.564v32.581h-17.064v-32.581
			c-0.002-31.226,25.402-56.629,56.627-56.629c31.225,0,56.629,25.403,56.629,56.629V256.516z"/>
	</g>
</g>
<g>
	<g>
		<path class="color" d="M256,304.612c-12.975,0-23.532,10.557-23.532,23.533c0,10.354,6.724,19.16,16.032,22.299v17.781
			c0,4.142,3.358,7.5,7.5,7.5c4.142,0,7.5-3.357,7.5-7.5v-17.781c9.308-3.139,16.032-11.946,16.032-22.299
			C279.532,315.169,268.975,304.612,256,304.612z M256,336.677c-4.704,0-8.532-3.828-8.532-8.532c0-4.706,3.827-8.533,8.532-8.533
			s8.532,3.828,8.532,8.533C264.532,332.849,260.704,336.677,256,336.677z"/>
	</g>
</g>
<g>
</g>
<g>
</g>
<g>
</g>
<g>
</g>
<g>
</g>
<g>
</g>
<g>
</g>
<g>
</g>
<g>
</g>
<g>
</g>
<g>
</g>
<g>
</g>
<g>
</g>
<g>
</g>
<g>
</g>
</svg>
