<svg id="Layer_3" enable-background="new 0 0 64 64" height="512" viewBox="0 0 64 64" width="512" xmlns="http://www.w3.org/2000/svg">
<style type="text/css">
	.color{fill:#013f54;}
</style>
<path class="color" d="m48 37c-6.065 0-11 4.935-11 11s4.935 11 11 11 11-4.935 11-11-4.935-11-11-11zm0 20c-4.962 0-9-4.038-9-9s4.038-9 9-9 9 4.038 9 9-4.038 9-9 9z"/><path class="color" d="m5 48c0 6.065 4.935 11 11 11s11-4.935 11-11-4.935-11-11-11-11 4.935-11 11zm20 0c0 4.962-4.038 9-9 9s-9-4.038-9-9 4.038-9 9-9 9 4.038 9 9z"/><path class="color" d="m56 35.325v-4.325h-5v-4.695c2.413-1.15 4-3.59 4-6.305v-2c0-3.86-3.14-7-7-7-.812 0-1.599.139-2.35.407l-.044-.044c.769-2.299.254-4.847-1.418-6.666l-1.307-1.42c-2.53-2.752-6.854-2.957-9.638-.459-.392.351-.721.755-1.019 1.182h-.482c-.298-.427-.627-.831-1.019-1.182-2.784-2.497-7.108-2.292-9.639.459l-1.306 1.42c-1.682 1.828-2.193 4.386-1.41 6.692l-.018.018c-.751-.268-1.538-.407-2.35-.407-3.86 0-7 3.14-7 7v2c0 2.716 1.586 5.155 4 6.305v4.695h-5v4.325c-4.333 2.74-7 7.544-7 12.675 0 8.271 6.729 15 15 15s15-6.729 15-15c0-5.131-2.667-9.935-7-12.675v-4.325h-5v-4.695c2.413-1.15 4-3.59 4-6.305v-2c0-.812-.139-1.599-.407-2.35l.017-.017c.73.25 1.482.374 2.229.374 1.875 0 3.712-.77 5.043-2.217l1.306-1.42c.306-.333.564-.701.796-1.084.232.382.489.75.795 1.083l1.307 1.421c1.333 1.448 3.166 2.218 5.04 2.218.756 0 1.518-.128 2.257-.385l.026.026c-.27.752-.409 1.539-.409 2.351v2c0 2.715 1.587 5.155 4 6.305v4.695h-5v4.325c-4.333 2.741-7 7.544-7 12.675 0 8.271 6.729 15 15 15s15-6.729 15-15c0-5.131-2.667-9.935-7-12.675zm-8-22.325c2.757 0 5 2.243 5 5v2c0 1.599-.766 3.07-2 3.998v-1.998c0-.366-.075-.713-.196-1.038.125-.329.196-.678.196-1.035v-1.927c0-1.033-.524-1.945-1.321-2.484l.039-.039-2.421-2.422c.232-.033.465-.055.703-.055zm-1 5c0-.551.449-1 1-1s1 .449 1 1v1.184c-.314-.112-.648-.184-1-.184s-.686.072-1 .184zm0 4c0-.551.449-1 1-1s1 .449 1 1v10c0 .551-.449 1-1 1s-1-.449-1-1zm-5.591-17.37 1.307 1.42c.927 1.008 1.345 2.334 1.22 3.641l-.278-.278c-.389-.389-.862-.636-1.36-.766-.134-.505-.384-.977-.762-1.354l-1.414-1.414c-.753-.753-1.83-1.028-2.826-.788-.552-.661-1.37-1.091-2.296-1.091h-.002c1.969-1.415 4.739-1.189 6.411.63zm-20.159 1.421 1.306-1.42c1.674-1.819 4.447-2.044 6.415-.627-.914.009-1.722.435-2.266 1.089-.996-.241-2.073.034-2.826.787l-1.415 1.415c-.377.377-.626.849-.761 1.354-.497.13-.97.378-1.36.767l-.311.311c-.135-1.319.283-2.659 1.218-3.676zm-4.25 11.949v1.184c-.314-.112-.648-.184-1-.184s-.686.072-1 .184v-1.184c0-.551.449-1 1-1s1 .449 1 1zm0 4v10c0 .551-.449 1-1 1s-1-.449-1-1v-10c0-.551.449-1 1-1s1 .449 1 1zm-6-2v-2c0-2.757 2.243-5 5-5 .238 0 .471.022.703.054l-2.139 2.139.122.122c-.994.49-1.686 1.504-1.686 2.685v1.927c0 .354.079.692.201 1.018-.124.329-.201.683-.201 1.055v1.998c-1.234-.929-2-2.399-2-3.998zm11 13v3.464l.499.289c4.01 2.324 6.501 6.633 6.501 11.247 0 7.168-5.832 13-13 13s-13-5.832-13-13c0-4.614 2.491-8.923 6.501-11.247l.499-.289v-3.464h3.184c.414 1.161 1.514 2 2.816 2s2.402-.839 2.816-2zm-1-13c0 1.599-.766 3.07-2 3.998v-1.998c0-.375-.077-.731-.204-1.063.12-.325.204-.661.204-1.01v-.684l1.946-1.945c.032.231.054.464.054.702zm2.172-7.757-4.472 4.472c-.296-.619-.795-1.118-1.414-1.414l4.472-4.472c.389-.39 1.025-.391 1.414 0 .39.389.39 1.024 0 1.414zm.706-3.536 1.415-1.414c.192-.193.449-.28.708-.281.003.673.235 1.287.613 1.787l-1.322 1.322c-.048.048-.097.065-.147.099-.142-.29-.32-.566-.56-.807-.24-.239-.515-.417-.803-.559.035-.048.054-.105.096-.147zm5.837 2.31-1.306 1.42c-1.076 1.169-2.618 1.714-4.139 1.536l.316-.316c.385-.385.631-.853.762-1.346.511-.135.983-.4 1.359-.776l1.413-1.413c.065-.065.109-.147.167-.218.23.057.466.096.713.096h1.429c-.192.366-.43.708-.714 1.017zm-.715-3.017c-.551 0-1-.449-1-1s.449-1 1-1h6c.551 0 1 .449 1 1s-.449 1-1 1zm6.557 4.437-1.307-1.421c-.283-.308-.522-.651-.714-1.016h1.464c.247 0 .483-.039.713-.095.058.07.101.152.166.216l1.415 1.415c.381.38.849.634 1.356.767.131.495.377.966.765 1.353l.305.305c-1.526.177-3.099-.368-4.163-1.524zm3.857-3.023c-.24.24-.418.516-.56.806-.049-.034-.104-.056-.147-.098l-1.322-1.322c.378-.5.611-1.114.613-1.787.259 0 .515.088.708.281l1.415 1.414c.043.043.062.1.095.148-.288.141-.563.319-.802.558zm1.415 2.829c-.39-.39-.39-1.024 0-1.414s1.025-.391 1.415 0l4.472 4.472c-.619.296-1.118.795-1.414 1.414zm2.171 7.757v-2c0-.238.022-.471.055-.703l1.945 1.946v.685c0 .356.071.705.196 1.035-.121.324-.196.671-.196 1.037v1.998c-1.234-.928-2-2.399-2-3.998zm5 41c-7.168 0-13-5.832-13-13 0-4.614 2.491-8.923 6.501-11.247l.499-.289v-3.464h3.184c.414 1.161 1.514 2 2.816 2s2.402-.839 2.816-2h3.184v3.464l.499.289c4.01 2.324 6.501 6.633 6.501 11.247 0 7.168-5.832 13-13 13z"/><path class="color" d="m33 36v-2.142c1.72-.447 3-2 3-3.858 0-2.206-1.794-4-4-4-1.103 0-2-.897-2-2s.897-2 2-2 2 .897 2 2h2c0-1.858-1.28-3.411-3-3.858v-2.142h-2v2.142c-1.72.447-3 2-3 3.858 0 2.206 1.794 4 4 4 1.103 0 2 .897 2 2s-.897 2-2 2-2-.897-2-2h-2c0 1.858 1.28 3.411 3 3.858v2.142z"/><path class="color" d="m52.639 42.758-1.326 1.497c1.072.949 1.687 2.314 1.687 3.745 0 2.757-2.243 5-5 5v2c3.86 0 7-3.14 7-7 0-2.003-.86-3.914-2.361-5.242z"/><path class="color" d="m50.333 41.398c-.748-.264-1.532-.398-2.333-.398v2c.573 0 1.133.096 1.667.284z"/><path class="color" d="m21 48c0 2.757-2.243 5-5 5v2c3.86 0 7-3.14 7-7 0-2.003-.86-3.914-2.361-5.242l-1.326 1.497c1.072.949 1.687 2.314 1.687 3.745z"/><path class="color" d="m16 43c.573 0 1.133.096 1.667.284l.667-1.886c-.749-.264-1.533-.398-2.334-.398z"/></svg>