<svg height="496pt" viewBox="-48 0 496 496" width="496pt" xmlns="http://www.w3.org/2000/svg">
<style type="text/css">
	.color{fill:#013f54;}
</style>
<path class="color" d="m152 416c-13.230469 0-24 10.769531-24 24s10.769531 24 24 24 24-10.769531 24-24-10.769531-24-24-24zm0 32c-4.414062 0-8-3.585938-8-8s3.585938-8 8-8 8 3.585938 8 8-3.585938 8-8 8zm0 0"/><path class="color" d="m392 112h-12.046875c-28.042969 0-54.6875-9.816406-75.953125-27.257812v-44.742188c0-22.054688-17.945312-40-40-40h-224c-22.054688 0-40 17.945312-40 40v416c0 22.054688 17.945312 40 40 40h224c22.054688 0 40-17.945312 40-40v-100.503906l51.65625-29.519532c27.351562-15.625 44.34375-44.90625 44.34375-76.410156v-129.566406c0-4.425781-3.574219-8-8-8zm-104 344c0 13.230469-10.769531 24-24 24h-224c-13.230469 0-24-10.769531-24-24v-416c0-13.230469 10.769531-24 24-24h224c13.230469 0 24 10.769531 24 24v29.078125c-.070312-.085937-.160156-.15625-.230469-.246094l-1.617187-1.953125c-3.03125-3.65625-9.265625-3.65625-12.296875 0l-1.617188 1.9375c-.078125.09375-.167969.167969-.238281.253906v-29.070312c0-4.425781-3.574219-8-8-8h-224c-4.425781 0-8 3.574219-8 8v352c0 4.425781 3.574219 8 8 8h224c4.425781 0 8-3.574219 8-8v-27.359375l4.03125 2.304687c1.226562.703126 2.601562 1.054688 3.96875 1.054688s2.742188-.351562 3.96875-1.054688l4.03125-2.304687zm-83.65625-130.023438 51.65625 29.519532v28.503906h-208v-336h208v36.734375c-21.265625 17.449219-47.910156 27.265625-75.953125 27.265625h-12.046875c-4.425781 0-8 3.574219-8 8v129.566406c0 31.503906 16.992188 60.785156 44.34375 76.410156zm179.65625-76.410156c0 25.777344-13.894531 49.730469-36.28125 62.511719l-67.71875 38.714844-67.71875-38.703125c-22.386719-12.792969-36.28125-36.746094-36.28125-62.523438v-121.566406h4.046875c38.175781 0 74.226563-15.863281 99.953125-43.769531 25.71875 27.90625 61.777344 43.769531 99.953125 43.769531h4.046875zm0 0"/><path class="color" d="m344 200h-8v-24c0-30.871094-25.128906-56-56-56s-56 25.128906-56 56v24h-8c-4.425781 0-8 3.574219-8 8v80c0 4.425781 3.574219 8 8 8h128c4.425781 0 8-3.574219 8-8v-80c0-4.425781-3.574219-8-8-8zm-104-24c0-22.054688 17.945312-40 40-40s40 17.945312 40 40v24h-16v-24c0-13.230469-10.769531-24-24-24s-24 10.769531-24 24v24h-16zm48 24h-16v-24c0-4.414062 3.585938-8 8-8s8 3.585938 8 8zm-64 80v-32h16v-16h-16v-16h112v32h-16v16h16v16zm0 0"/></svg>