<svg id="Capa_1" enable-background="new 0 0 509.67 509.67" height="512" viewBox="0 0 509.67 509.67" width="512" xmlns="http://www.w3.org/2000/svg"><path d="m498.718 454.739-34.683-78.313 11.037-11.889c5.065-5.457 10.075-14.986 12.763-24.278 3.71-12.828 2.41-22.637-3.762-28.367-.874-.812-1.831-1.508-2.851-2.112 4.245-17.905 6.397-36.366 6.397-54.929 0-63.342-24.667-122.892-69.456-167.682s-104.34-69.456-167.682-69.456c-33.997 0-66.771 7.05-97.472 20.919-13.158-23.049-37.958-38.632-66.345-38.632-18.784 0-36.839 6.884-50.837 19.383-3.09 2.759-3.358 7.5-.599 10.589 2.759 3.091 7.501 3.358 10.589.599 11.246-10.041 25.753-15.571 40.847-15.571 33.831 0 61.354 27.523 61.354 61.354 0 26.091-16.377 48.416-39.386 57.272v-14.401c14.331-7.922 23.344-22.979 23.344-39.639 0-19.678-12.568-36.993-31.275-43.084-2.282-.743-4.785-.349-6.729 1.063-1.943 1.411-3.094 3.667-3.094 6.069v33.438l-4.283 2.135-4.64-2.22v-33.187c0-2.42-1.167-4.691-3.136-6.1-1.968-1.408-4.494-1.78-6.785-.999-18.352 6.259-30.683 23.493-30.683 42.885 0 17 9.267 32.188 24.002 39.995v14.305c-23.356-8.68-40.043-31.191-40.043-57.532 0-8.593 1.739-16.9 5.168-24.691 1.669-3.791-.051-8.217-3.843-9.886-3.792-1.67-8.218.052-9.886 3.843-4.273 9.707-6.44 20.048-6.44 30.734 0 26.05 13.121 49.083 33.093 62.869-19.672 35.172-30.059 75.079-30.059 115.627 0 63.342 24.667 122.892 69.456 167.682s104.34 69.456 167.682 69.456c30.463 0 60.125-5.697 88.163-16.932.888-.356 1.665-.868 2.325-1.484l36.726 34.094c1.395 1.295 3.221 2.003 5.102 2.003.304 0 .609-.019.915-.056 2.195-.27 4.159-1.494 5.367-3.345l12.118-18.571c1.388-2.127 1.605-4.813.576-7.136l-11.113-25.095 26.195-28.217 59.901 55.607c1.398 1.298 3.226 2.003 5.103 2.003.435 0 .872-.038 1.307-.115 2.314-.41 4.303-1.88 5.372-3.974l10.003-19.584c1.027-2.011 1.093-4.38.177-6.447zm-34.639-100.407-86.296 92.959-5.894.525c-3.946.35-7.718-.939-10.623-3.635-2.904-2.696-4.471-6.362-4.414-10.324l.086-5.916 86.296-92.96c7.928-8.541 27.135-15.347 30.633-12.096 3.498 3.247-1.86 22.906-9.788 31.447zm-321.561-106.981h-18.816c3.226-55.884 42.244-102.248 94.258-116.133-5.112 6.711-9.783 15.095-13.882 25.04-10.17 24.667-16.075 56.776-16.828 91.094h-14.732c-4.142 0-7.5 3.358-7.5 7.5s3.358 7.5 7.5 7.5h14.732c.753 34.317 6.658 66.426 16.828 91.094 4.1 9.944 8.771 18.329 13.882 25.04-52.014-13.885-91.032-60.249-94.258-116.133h18.816c4.142 0 7.5-3.358 7.5-7.5s-3.358-7.502-7.5-7.502zm171.194 0c-.753-34.317-6.658-66.426-16.828-91.094-4.1-9.944-8.771-18.328-13.882-25.04 52.014 13.885 91.032 60.249 94.258 116.133h-63.548zm-30.696-85.376c9.451 22.924 14.951 53.007 15.69 85.376h-96.456c1.62-71.328 26.143-120.39 48.231-120.39 11.503 0 23.362 12.762 32.535 35.014zm-65.07 185.753c-9.451-22.924-14.951-53.007-15.69-85.376h96.456c-1.62 71.328-26.144 120.39-48.231 120.39-11.503-.001-23.362-12.763-32.535-35.014zm78.938 5.717c10.17-24.667 16.075-56.776 16.828-91.094h63.56c-.997 17.674-5.534 34.601-13.525 50.415-.507 1.004-.76 2.068-.795 3.123l-22.42-7.997c-2.13-.76-4.487-.518-6.417.656l-18.788 11.429c-2.008 1.222-3.327 3.314-3.564 5.652-.237 2.339.637 4.653 2.359 6.252l20.352 18.893c-14.937 13.277-32.55 22.703-51.493 27.736 5.12-6.715 9.798-15.108 13.903-25.065zm34.713-25.808 7.261-4.417 70.169 25.027-25.564 27.538zm-256.003-219.832c-11.69-4.59-19.243-15.667-19.243-28.218 0-9.047 4.013-17.393 10.606-23.035v25.161c0 2.888 1.658 5.519 4.263 6.766l12.207 5.84c2.085.998 4.514.979 6.583-.053l11.716-5.84c2.545-1.269 4.154-3.868 4.154-6.712v-25.59c6.89 5.631 11.097 14.152 11.097 23.464 0 12.302-7.347 23.297-18.717 28.011-2.801 1.162-4.627 3.896-4.627 6.928v22.776c-.072.008-.143.02-.215.027-.789.087-1.58.149-2.371.206-.305.021-.608.053-.914.07-.759.043-1.519.059-2.278.074-.335.006-.667.024-1.003.025-.804.003-1.607-.023-2.409-.052-.28-.01-.564-.007-.843-.021-1.075-.053-2.147-.133-3.216-.242-.01-.001-.02-.003-.03-.004v-22.6c-.001-3.084-1.889-5.854-4.76-6.981zm174.887 369.184c-59.335 0-115.119-23.106-157.075-65.063s-65.063-97.74-65.063-157.075c0-38.006 9.738-75.405 28.178-108.356 9.253 3.992 19.442 6.214 30.142 6.214 42.102 0 76.354-34.252 76.354-76.354 0-8.394-1.381-16.466-3.895-24.026 28.766-13.004 59.484-19.615 91.357-19.615 59.335 0 115.119 23.106 157.075 65.063 41.957 41.957 65.063 97.74 65.063 157.075 0 17.784-2.127 35.457-6.281 52.576-3.338.441-6.958 1.378-10.833 2.819-9.066 3.37-18.197 9.073-23.263 14.53l-11.037 11.89-44.798-15.978c.272-.358.519-.741.729-1.156 10.185-20.155 15.349-41.917 15.349-64.68 0-78.79-63.703-142.89-142.003-142.89s-142.003 64.1-142.003 142.89 63.702 142.89 142.003 142.89c35.262 0 68.906-13.026 95.03-36.721l28.513 26.469-26.195 28.218-25.85-9.22c-2.392-.853-5.054-.438-7.073 1.104l-17.62 13.463c-1.757 1.343-2.832 3.392-2.938 5.601-.106 2.208.768 4.351 2.389 5.855l32.449 30.123c-25.108 9.52-51.562 14.354-78.704 14.354zm130.898 13.631-67.916-63.048 7.313-5.588 21.138 7.539-.06 4.117c-.118 8.144 3.238 15.993 9.207 21.534 5.344 4.961 12.376 7.696 19.613 7.696.846 0 1.696-.038 2.545-.113l4.101-.365 9.088 20.521zm98.312-25.505-51.866-48.148 25.564-27.538 30.167 68.117z"/></svg>